<svg class="symbolset" width="0" height="0" version="1.1" xmlns="http://www.w3.org/2000/svg" xmlns:xlink="http://www.w3.org/1999/xlink">
  <defs>
    <symbol id="icon-mail" width="32" height="32" viewBox="0 0 1024 1024">
      <title>Mail</title>
      <path class="path1" d="M853.31 0h-682.62c-93.88 0-170.69 76.784-170.69 170.658v682.656c0 93.876 76.81 170.686 170.69 170.686h682.622c93.938 0 170.688-76.81 170.688-170.686v-682.656c0-93.874-76.75-170.658-170.69-170.658zM256 256h512c9.138 0 18.004 1.962 26.144 5.662l-282.144 329.168-282.144-329.17c8.14-3.696 17.006-5.66 26.144-5.66zM192 704v-384c0-1.34 0.056-2.672 0.14-4l187.664 218.94-185.598 185.6c-1.444-5.338-2.206-10.886-2.206-16.54zM768 768h-512c-5.654 0-11.202-0.762-16.54-2.206l182.118-182.118 90.422 105.496 90.424-105.494 182.116 182.118c-5.34 1.442-10.886 2.204-16.54 2.204zM832 704c0 5.654-0.762 11.2-2.206 16.54l-185.598-185.598 187.664-218.942c0.084 1.328 0.14 2.66 0.14 4v384z"></path>
    </symbol>
    <symbol id="icon-twitter" width="32" height="32" viewBox="0 0 1024 1024">
      <title>Twitter</title>
      <path class="path1" d="M853.342 0h-682.656c-93.874 0-170.686 76.81-170.686 170.69v682.624c0 93.936 76.812 170.686 170.686 170.686h682.656c93.876 0 170.658-76.75 170.658-170.69v-682.62c0-93.88-76.782-170.69-170.658-170.69zM766.478 381.48c0.252 5.632 0.38 11.296 0.38 16.988 0 173.51-132.070 373.588-373.584 373.588-74.15 0-143.168-21.738-201.276-58.996 10.272 1.218 20.724 1.84 31.322 1.84 61.518 0 118.134-20.992 163.072-56.21-57.458-1.054-105.948-39.020-122.658-91.184 8.018 1.532 16.244 2.36 24.704 2.36 11.976 0 23.578-1.61 34.592-4.61-60.064-12.066-105.326-65.132-105.326-128.75 0-0.554 0-1.104 0.012-1.652 17.7 9.834 37.948 15.742 59.47 16.424-35.232-23.546-58.414-63.736-58.414-109.292 0-24.064 6.476-46.62 17.78-66.010 64.76 79.44 161.51 131.712 270.634 137.19-2.238-9.612-3.4-19.632-3.4-29.924 0-72.512 58.792-131.298 131.304-131.298 37.766 0 71.892 15.944 95.842 41.462 29.908-5.886 58.008-16.814 83.38-31.862-9.804 30.662-30.624 56.394-57.732 72.644 26.56-3.174 51.866-10.232 75.412-20.674-17.594 26.328-39.854 49.454-65.514 67.966z"></path>
    </symbol>
    <symbol id="icon-feed" width="32" height="32" viewBox="0 0 1024 1024">
      <title>RSS Feed</title>
      <path class="path1" d="M853.34 0h-682.654c-93.876 0-170.686 76.812-170.686 170.688v682.628c0 93.934 76.812 170.684 170.688 170.684h682.652c93.876 0 170.66-76.748 170.66-170.684v-682.628c0-93.876-76.784-170.688-170.66-170.688zM278.944 831.248c-47.97 0-86.944-38.692-86.944-86.628 0-47.684 38.972-86.812 86.944-86.812 48.158 0 87.060 39.128 87.060 86.812-0.002 47.936-38.904 86.628-87.060 86.628zM497.468 831.996c0-81.81-31.808-158.818-89.46-216.444-57.714-57.75-134.376-89.626-215.904-89.626v-125.186c237.652 0 431.126 193.442 431.126 431.254l-125.762 0.002zM719.628 831.996c0-291.062-236.658-527.94-527.376-527.94v-125.248c360.002 0 652.946 293.124 652.946 653.192l-125.57-0.004z"></path>
    </symbol>
    <symbol id="icon-github" width="32" height="32" viewBox="0 0 1024 1024">
      <title>Github</title>
      <path class="path1" d="M512 0c-282.77 0-512 229.23-512 512s229.23 512 512 512 512-229.23 512-512-229.23-512-512-512zM816.056 816.056c-39.518 39.516-85.512 70.532-136.708 92.186-13.006 5.5-26.214 10.328-39.6 14.492v-76.734c0-40.334-13.834-70-41.5-89 17.334-1.666 33.25-4 47.75-7s29.834-7.334 46-13 30.666-12.416 43.5-20.25 25.166-18 37-30.5 21.75-26.666 29.75-42.5 14.334-34.834 19-57 7-46.584 7-73.25c0-51.666-16.834-95.666-50.5-132 15.334-40 13.666-83.5-5-130.5l-12.5-1.5c-8.666-1-24.25 2.666-46.75 11s-47.75 22-75.75 41c-39.666-11-80.834-16.5-123.5-16.5-43 0-84 5.5-123 16.5-17.666-12-34.416-21.916-50.25-29.75s-28.5-13.166-38-16-18.334-4.584-26.5-5.25-13.416-0.834-15.75-0.5-4 0.666-5 1c-18.666 47.334-20.334 90.834-5 130.5-33.666 36.334-50.5 80.334-50.5 132 0 26.666 2.334 51.084 7 73.25s11 41.166 19 57 17.916 30 29.75 42.5 24.166 22.666 37 30.5 27.334 14.584 43.5 20.25 31.5 10 46 13 30.416 5.334 47.75 7c-27.334 18.666-41 48.334-41 89v78.23c-15.098-4.494-29.98-9.804-44.6-15.988-51.194-21.654-97.188-52.67-136.706-92.186-39.516-39.518-70.534-85.512-92.186-136.708-22.398-52.958-33.756-109.262-33.756-167.348s11.358-114.39 33.758-167.35c21.654-51.194 52.67-97.188 92.186-136.706s85.512-70.534 136.706-92.186c52.96-22.4 109.264-33.758 167.35-33.758s114.39 11.358 167.35 33.758c51.196 21.654 97.19 52.67 136.708 92.186 39.516 39.516 70.532 85.512 92.186 136.706 22.398 52.96 33.756 109.264 33.756 167.35s-11.358 114.39-33.758 167.35c-21.654 51.194-52.67 97.19-92.186 136.706z"></path>
    </symbol>
    <symbol id="icon-clock" width="32" height="32" viewBox="0 0 1024 1024">
        <title>Clock</title>
        <path class="path1" d="M658.744 749.256l-210.744-210.746v-282.51h128v229.49l173.256 173.254zM512 0c-282.77 0-512 229.23-512 512s229.23 512 512 512 512-229.23 512-512-229.23-512-512-512zM512 896c-212.078 0-384-171.922-384-384s171.922-384 384-384c212.078 0 384 171.922 384 384s-171.922 384-384 384z"></path>
        </symbol>
  </defs>
</svg>
