<?xml version="1.0" standalone="no"?>
<!DOCTYPE svg PUBLIC "-//W3C//DTD SVG 20010904//EN"
 "http://www.w3.org/TR/2001/REC-SVG-20010904/DTD/svg10.dtd">
<svg version="1.0" xmlns="http://www.w3.org/2000/svg"
 width="16.000000pt" height="16.000000pt" viewBox="0 0 16.000000 16.000000"
 preserveAspectRatio="xMidYMid meet">
<metadata>
Created by potrace 1.11, written by Peter Selinger 2001-2013
</metadata>
<g transform="translate(0.000000,16.000000) scale(0.003125,-0.003125)"
fill="#000000" stroke="none">
<path d="M860 5105 c-321 -50 -608 -265 -754 -562 -49 -100 -75 -184 -91 -292
-22 -143 -22 -3239 0 -3382 32 -215 126 -402 284 -562 156 -159 352 -260 570
-292 143 -22 3239 -22 3382 0 328 49 615 261 762 561 50 101 76 184 92 293 22
143 22 3239 0 3382 -32 218 -133 414 -292 570 -160 158 -347 252 -562 284
-136 21 -3259 20 -3391 0z m1438 -1402 l3 -133 -535 0 c-330 0 -537 -4 -541
-10 -3 -5 -6 -202 -6 -437 l0 -428 506 -3 506 -2 -3 -133 -3 -132 -503 -5
-503 -5 -2 -570 -2 -570 -150 0 -150 0 -3 1270 c-1 699 0 1276 3 1283 3 10
147 12 692 10 l688 -3 3 -132z m2153 -1 l0 -133 -379 1 c-208 0 -386 -2 -395
-6 -16 -6 -17 -91 -17 -1144 0 -1028 -2 -1138 -16 -1144 -23 -9 -267 -7 -281
2 -10 6 -13 251 -15 1148 l-3 1139 -392 3 -393 2 0 128 c0 71 3 132 7 135 3 4
429 6 945 5 l939 -3 0 -133z"/>
</g>
</svg>
