<?xml version="1.0" standalone="no"?>
<!DOCTYPE svg PUBLIC "-//W3C//DTD SVG 20010904//EN"
 "http://www.w3.org/TR/2001/REC-SVG-20010904/DTD/svg10.dtd">
<svg version="1.0" xmlns="http://www.w3.org/2000/svg"
 width="512.000000pt" height="512.000000pt" viewBox="0 0 512.000000 512.000000"
 preserveAspectRatio="xMidYMid meet">
<metadata>
Created by potrace 1.11, written by Peter Selinger 2001-2013
</metadata>
<g transform="translate(0.000000,512.000000) scale(0.100000,-0.100000)"
fill="#000000" stroke="none">
<path d="M2220 4940 c-8 -5 -24 -10 -34 -10 -11 0 -27 -6 -35 -14 -29 -25
-125 -73 -172 -85 -38 -10 -51 -21 -78 -62 -23 -35 -41 -51 -61 -55 -20 -4
-30 -14 -35 -32 -4 -15 -34 -54 -68 -88 -34 -34 -82 -87 -107 -118 -87 -110
-134 -161 -178 -194 -28 -22 -41 -39 -38 -49 4 -10 0 -13 -13 -11 -23 4 -72
-39 -65 -57 3 -7 0 -16 -7 -21 -8 -4 -10 -3 -5 4 4 7 2 12 -3 12 -6 0 -11 -6
-11 -12 0 -7 -13 -39 -29 -70 -15 -32 -25 -59 -20 -60 4 -2 -1 -20 -12 -42
-10 -21 -16 -43 -13 -47 3 -5 2 -15 -3 -21 -10 -16 -11 -32 -13 -176 -1 -67
-7 -132 -16 -160 -8 -26 -17 -65 -19 -87 -3 -22 -7 -54 -10 -71 -7 -38 21
-218 34 -222 5 -2 7 -12 4 -22 -3 -11 0 -20 6 -20 6 0 11 -7 11 -15 0 -8 9
-15 20 -15 10 0 40 -22 65 -49 25 -27 57 -52 71 -55 17 -5 24 -12 20 -21 -3
-8 -1 -15 4 -15 13 0 40 -60 45 -105 3 -21 10 -44 16 -52 16 -18 -5 -17 -24 1
-12 12 -16 12 -30 -5 -10 -11 -17 -23 -17 -28 0 -5 -14 -14 -31 -20 -30 -10
-31 -13 -26 -56 6 -55 28 -83 63 -79 31 3 26 -3 51 64 l21 55 12 -30 c6 -17 9
-48 5 -72 -3 -23 -2 -44 3 -47 6 -3 13 -18 16 -32 4 -15 14 -33 21 -41 8 -8
15 -23 15 -34 0 -11 4 -18 9 -15 5 4 7 -2 5 -11 -3 -10 2 -27 10 -38 12 -15
15 -16 16 -5 0 13 2 13 9 1 8 -12 12 -12 25 2 17 16 22 82 7 91 -4 3 -11 25
-14 48 -4 24 -12 72 -19 108 -9 41 -11 84 -6 115 4 28 9 82 12 120 3 39 9 86
14 107 9 35 8 37 -25 55 -23 12 -33 24 -31 38 3 17 10 19 50 16 25 -1 70 -9
98 -16 38 -10 50 -10 47 -2 -2 7 -29 19 -60 27 -74 19 -97 40 -98 87 -1 21 -3
61 -4 88 -3 59 19 152 42 177 10 12 14 27 10 47 -5 24 -2 31 15 37 15 5 17 8
7 14 -10 7 -10 12 -1 23 14 17 18 74 8 102 -6 16 -6 17 3 5 9 -12 11 -9 11 17
0 17 5 35 10 38 6 4 8 10 5 15 -3 4 2 11 10 14 12 4 14 15 9 46 -5 33 -4 40
10 40 9 0 16 7 16 15 0 8 -6 13 -12 11 -7 -1 -10 -1 -5 1 4 3 7 16 7 29 0 13
4 24 9 24 5 0 27 18 49 40 32 33 41 38 46 25 3 -9 2 -13 -4 -10 -6 3 -10 0
-10 -7 0 -7 -12 -22 -27 -33 -14 -12 -23 -27 -19 -33 4 -7 15 -2 33 14 14 13
30 24 35 24 14 0 38 -27 38 -42 0 -8 3 -9 8 -3 4 6 16 17 26 25 18 14 19 14 8
-7 -8 -14 -9 -24 -2 -28 5 -3 10 -2 10 3 0 5 7 9 15 9 9 0 14 -6 11 -12 -2 -7
1 -18 7 -25 9 -10 9 -11 0 -6 -7 4 -13 2 -13 -4 0 -8 9 -10 26 -6 24 6 25 6
10 -9 -9 -9 -14 -21 -11 -26 3 -5 1 -18 -5 -29 -10 -18 -9 -19 16 -10 26 10
26 10 19 -29 -7 -40 9 -67 21 -37 3 9 11 13 16 10 6 -4 8 1 4 13 -5 14 1 23
19 33 14 7 25 20 25 29 0 14 2 14 10 1 6 -10 10 -11 10 -2 0 6 5 12 11 12 5 0
7 -4 4 -10 -3 -5 -1 -10 4 -10 6 0 11 5 11 11 0 6 7 9 15 6 8 -4 17 -2 20 3 3
4 0 10 -7 12 -8 3 -6 7 5 11 9 3 16 3 14 -1 -5 -16 9 -16 33 1 13 9 19 17 12
17 -8 0 -20 7 -28 15 -9 8 -11 15 -5 15 5 0 13 -4 16 -10 9 -15 27 -12 19 3
-6 10 -4 10 7 0 23 -23 40 -16 34 15 -5 25 -5 25 4 5 11 -25 24 -32 15 -8 -4
9 0 15 10 15 9 0 16 -7 16 -16 0 -12 4 -14 13 -7 14 12 47 13 47 2 0 -4 7 -10
16 -13 8 -3 13 -2 10 3 -5 8 22 24 34 21 2 -1 7 7 11 17 7 16 8 16 8 -3 1 -28
11 -36 28 -23 7 6 22 9 33 6 17 -4 19 -1 14 19 -5 18 -2 24 11 24 13 0 16 -6
11 -24 -4 -18 -2 -23 12 -22 9 0 22 7 28 15 6 8 16 11 22 7 7 -4 12 -1 12 8 0
8 4 18 10 21 6 3 7 -1 4 -9 -5 -13 2 -15 34 -13 22 1 38 5 35 10 -2 4 12 -2
32 -13 20 -11 34 -16 30 -10 -3 5 -1 10 4 10 6 0 11 -8 11 -17 0 -15 2 -16 10
-3 6 10 10 11 10 3 0 -7 5 -13 10 -13 6 0 10 7 10 15 0 18 27 20 32 3 3 -8 9
-8 23 -1 12 7 28 8 42 2 18 -7 23 -5 23 7 0 11 6 15 20 11 15 -4 20 0 21 16 1
20 2 20 8 -3 5 -18 13 -24 27 -22 10 2 20 7 22 12 4 10 42 0 42 -11 0 -5 4 -9
10 -9 5 0 9 3 9 8 -1 4 -1 14 0 22 1 12 5 11 17 -5 16 -20 16 -20 10 1 -4 13
-1 26 9 34 13 11 15 8 16 -16 1 -17 3 -22 6 -11 5 21 26 22 43 2 10 -13 15
-13 32 -1 17 12 24 12 46 0 19 -9 30 -10 39 -2 13 10 15 7 17 -21 1 -8 7 -16
15 -19 9 -3 11 2 7 16 -7 19 -5 20 26 11 18 -5 34 -9 35 -9 2 0 2 -3 1 -7 -3
-9 26 -53 55 -84 9 -10 16 -21 15 -24 -2 -2 5 -13 14 -25 12 -13 14 -20 5 -20
-7 0 -5 -5 4 -10 29 -17 69 -108 80 -182 7 -50 7 -113 1 -198 -9 -114 -8 -127
9 -152 16 -23 16 -28 3 -39 -19 -15 -31 -4 -15 15 10 12 8 16 -9 21 -11 3 -18
10 -15 15 3 5 -11 12 -31 16 -26 5 -45 2 -65 -10 -16 -10 -33 -15 -37 -12 -16
10 -132 14 -138 5 -3 -5 -9 -7 -14 -4 -18 11 -132 -14 -147 -32 -13 -17 -14
-16 -8 5 7 23 7 23 -19 7 -14 -10 -26 -22 -26 -28 0 -7 -4 -7 -12 1 -9 9 -19
5 -42 -20 -17 -18 -29 -36 -28 -40 1 -5 -2 -8 -8 -8 -5 0 -10 6 -10 13 0 7
-14 12 -35 13 -30 0 -35 -3 -35 -23 0 -13 -4 -23 -10 -23 -5 0 -7 -7 -4 -15 9
-23 -49 -19 -70 4 -10 11 -25 17 -37 14 -10 -3 -19 0 -19 6 0 25 -40 3 -53
-29 -3 -9 -6 -10 -6 -2 -1 6 -12 12 -26 12 -29 0 -65 32 -65 58 0 13 -2 14 -9
4 -6 -10 -10 -3 -15 22 -5 27 -13 37 -31 42 -13 3 -23 11 -22 16 1 6 -7 12
-19 14 -18 3 -21 -1 -17 -24 3 -27 3 -27 -7 -3 l-10 24 -27 -24 c-14 -13 -23
-18 -19 -11 4 7 2 12 -7 12 -7 0 -26 14 -41 31 -20 22 -34 29 -49 25 -11 -3
-39 3 -61 13 -23 10 -46 16 -53 14 -6 -2 -14 1 -18 6 -3 6 0 8 8 5 8 -3 18 -1
22 5 4 7 -3 11 -17 11 -13 0 -33 7 -45 15 -16 11 -24 12 -29 4 -5 -8 -3 -9 7
-4 12 8 12 6 0 -8 -14 -18 -26 -23 -17 -8 8 12 -59 24 -86 15 -14 -4 -18 -3
-13 6 9 15 -37 -10 -47 -26 -4 -7 -19 -15 -33 -18 -14 -4 -24 -12 -22 -19 1
-7 -8 -12 -21 -12 -13 0 -29 -7 -35 -16 -7 -8 -20 -18 -29 -22 -22 -8 -24 -27
-3 -27 20 0 19 -34 0 -50 -9 -7 -14 -19 -11 -27 4 -9 -3 -13 -19 -13 -13 0
-27 -4 -30 -10 -3 -5 -14 -10 -24 -10 -16 0 -19 -11 -24 -62 -4 -56 -2 -66 19
-88 12 -14 34 -63 48 -110 48 -157 58 -185 97 -242 30 -44 51 -63 100 -87 34
-17 76 -33 95 -37 31 -6 39 -14 35 -36 -1 -11 13 -10 25 2 6 6 19 4 38 -5 16
-8 37 -15 47 -15 11 0 19 -6 19 -12 0 -10 3 -9 9 1 6 9 34 15 83 17 79 3 114
13 159 45 16 11 35 17 41 13 7 -4 10 -4 6 0 -3 4 5 20 18 36 44 48 90 126 110
185 10 32 32 73 49 92 26 29 37 34 76 35 63 1 86 -14 100 -65 28 -103 44 -147
83 -228 36 -75 45 -87 76 -97 25 -7 38 -7 48 0 7 6 15 8 19 4 3 -3 0 -6 -7 -6
-10 0 -11 -3 -4 -10 7 -7 21 -7 40 -1 16 5 85 12 154 15 237 9 291 46 399 271
38 78 79 151 91 162 15 14 23 37 27 75 6 61 1 68 -65 87 -57 16 -86 45 -72 71
5 10 10 60 10 110 0 55 5 104 14 124 7 18 14 55 14 82 0 27 7 68 16 92 8 23
13 49 10 57 -4 9 0 15 7 15 11 0 14 25 14 118 -1 101 -4 134 -20 187 -1 6 -3
13 -4 18 -4 27 -55 107 -85 135 -33 30 -36 37 -30 68 3 19 2 40 -3 47 -6 6
-13 20 -16 30 -6 15 -4 16 16 7 14 -7 9 1 -14 22 -40 36 -119 149 -119 170 0
7 -10 18 -22 23 -24 10 -31 41 -15 63 6 8 5 12 -4 13 -8 1 -18 2 -24 4 -5 1
-15 3 -21 3 -6 1 -16 13 -22 27 -9 19 -19 25 -41 25 -38 0 -52 24 -50 83 1 26
-5 53 -14 68 -10 14 -15 27 -13 30 2 2 -8 13 -22 23 -15 11 -21 13 -14 6 17
-20 15 -30 -5 -23 -17 6 -17 5 0 -14 19 -22 23 -43 7 -43 -5 0 -10 4 -10 9 0
19 -32 41 -59 41 -15 0 -32 5 -39 12 -19 19 -14 -1 9 -33 11 -16 17 -29 12
-28 -10 0 -73 86 -73 98 0 5 -14 21 -31 35 -17 14 -27 26 -22 26 4 0 1 5 -7
10 -20 13 -97 13 -105 0 -3 -5 -1 -10 4 -10 6 0 11 -4 11 -10 0 -5 -7 -10 -15
-10 -8 0 -15 7 -15 16 0 11 -6 14 -20 9 -13 -4 -20 -2 -20 6 0 10 -3 10 -12 1
-17 -17 -28 -15 -28 6 0 14 -4 12 -20 -8 -10 -14 -22 -21 -26 -17 -4 4 0 15
10 25 17 20 13 52 -8 52 -14 0 -56 -29 -43 -30 5 0 17 5 28 10 15 8 19 7 19
-4 0 -7 -7 -17 -16 -20 -9 -4 -14 -9 -11 -13 13 -12 -13 -40 -35 -38 -37 4
-38 4 -38 19 0 24 -68 58 -131 65 -48 6 -59 5 -59 -7 0 -8 -6 -12 -13 -9 -7 3
-26 -1 -42 -8 -17 -7 -24 -14 -16 -14 8 -1 12 -3 9 -6 -3 -3 -18 1 -33 9 -16
8 -33 13 -37 9 -5 -3 -15 3 -22 13 -8 10 -20 15 -30 11 -9 -4 -16 -2 -16 3 0
6 -7 10 -15 10 -8 0 -15 4 -15 8 0 12 -62 13 -80 2z m60 -20 c0 -5 7 -7 15 -4
10 4 15 0 15 -10 0 -14 -9 -16 -44 -14 -30 2 -42 7 -39 16 3 6 0 12 -6 12 -6
0 -11 -4 -11 -9 0 -13 -30 -22 -43 -14 -16 9 40 32 81 33 17 0 32 -4 32 -10z
m389 -46 c1 -1 1 -7 0 -13 -2 -5 -15 -1 -29 10 l-25 20 25 -7 c14 -3 27 -8 29
-10z m-376 -11 c-7 -2 -19 -2 -25 0 -7 3 -2 5 12 5 14 0 19 -2 13 -5z m768
-25 c22 -12 39 -28 39 -35 0 -8 9 -23 20 -35 29 -31 25 -38 -14 -26 -21 7 -39
21 -46 37 -7 14 -16 33 -20 41 -4 8 -18 21 -31 27 -20 11 -21 13 -5 13 10 0
36 -10 57 -22z m-815 5 c-9 -10 -96 -10 -90 -1 3 5 26 8 51 8 26 0 43 -3 39
-7z m774 -10 c0 -3 -5 -14 -11 -25 -10 -18 -9 -20 6 -15 11 5 15 3 13 -5 -7
-21 -26 -20 -38 2 -14 26 -8 47 14 47 9 0 16 -2 16 -4z m90 -114 c0 -6 -4 -7
-10 -4 -5 3 -10 11 -10 16 0 6 5 7 10 4 6 -3 10 -11 10 -16z m120 7 c-1 -5 4
-12 11 -17 8 -4 10 -12 5 -16 -4 -4 -14 1 -22 11 -17 23 -18 39 -3 34 6 -2 10
-7 9 -12z m-64 -44 c-4 -3 -14 2 -24 12 -16 18 -16 18 6 6 13 -6 21 -14 18
-18z m154 -3 c0 -11 -4 -17 -10 -14 -5 3 -10 13 -10 21 0 8 5 14 10 14 6 0 10
-9 10 -21z m60 -123 c0 -3 -4 -8 -10 -11 -5 -3 -10 -1 -10 4 0 6 5 11 10 11 6
0 10 -2 10 -4z m-1915 -316 c-3 -5 -11 -10 -16 -10 -6 0 -7 5 -4 10 3 6 11 10
16 10 6 0 7 -4 4 -10z m335 -170 c0 -5 -5 -10 -11 -10 -5 0 -7 5 -4 10 3 6 8
10 11 10 2 0 4 -4 4 -10z m975 -90 c-3 -5 -10 -10 -16 -10 -5 0 -9 5 -9 10 0
6 7 10 16 10 8 0 12 -4 9 -10z m65 0 c0 -5 -4 -10 -10 -10 -5 0 -10 5 -10 10
0 6 5 10 10 10 6 0 10 -4 10 -10z m-220 -10 c0 -5 -7 -10 -16 -10 -8 0 -12 5
-9 10 3 6 10 10 16 10 5 0 9 -4 9 -10z m-438 -72 c-6 -6 -15 -8 -19 -4 -4 4
-1 11 7 16 19 12 27 3 12 -12z m-479 -73 c-3 -9 -8 -14 -10 -11 -3 3 -2 9 2
15 9 16 15 13 8 -4z m1845 -567 c-2 -6 -10 -14 -18 -16 -7 -3 -10 0 -6 6 3 6
0 13 -6 15 -7 3 -2 6 10 6 14 1 22 -4 20 -11z m60 -143 c-2 -21 -7 -25 -33
-24 -16 0 -39 4 -50 9 -18 8 -18 9 6 9 14 1 34 8 45 16 27 21 34 18 32 -10z
m-10 -106 c19 -7 21 -12 12 -29 -13 -25 5 -28 19 -3 9 17 12 16 35 -6 35 -33
41 -79 23 -172 -28 -144 -83 -231 -171 -270 -59 -26 -234 -31 -339 -10 -89 18
-120 43 -140 118 -28 106 -29 113 -12 113 8 0 15 -4 15 -10 0 -5 9 -10 19 -10
10 0 21 -7 25 -15 3 -8 9 -14 13 -13 4 1 19 -4 33 -12 23 -12 24 -12 11 3 -12
15 -10 17 15 13 16 -2 23 -1 16 1 -22 8 -7 28 19 27 l23 -2 -22 18 c-30 25
-28 36 3 16 17 -11 31 -14 42 -8 11 6 12 11 4 16 -19 12 -12 28 12 25 23 -3
107 38 107 53 0 4 9 8 20 8 12 0 35 10 52 23 22 16 32 18 35 10 3 -7 21 -13
41 -13 25 0 33 3 23 9 -11 7 -6 17 23 45 32 33 50 66 27 52 -12 -8 -74 5 -66
13 4 3 -9 11 -27 17 -30 11 -28 12 27 7 33 -3 70 -10 83 -14z m-1245 -20 c3
-10 1 -19 -5 -19 -5 0 -7 -4 -4 -9 3 -4 17 -6 31 -3 19 3 25 0 25 -12 0 -10
-4 -14 -10 -11 -5 3 -15 -5 -22 -19 -9 -21 -18 -26 -49 -26 l-38 0 20 34 c11
18 21 47 22 64 2 32 22 33 30 1z m-248 -29 c3 -5 -3 -10 -14 -10 -12 0 -21 5
-21 10 0 6 6 10 14 10 8 0 18 -4 21 -10z m540 1 c3 -5 2 -12 -3 -15 -5 -3 -9
1 -9 9 0 17 3 19 12 6z m715 -55 c0 -5 -3 -7 -6 -4 -3 4 -17 0 -32 -8 -25 -13
-47 -10 -26 4 6 4 17 18 24 31 12 24 13 24 26 6 8 -10 14 -23 14 -29z m-1390
-16 c24 16 82 8 87 -11 7 -25 30 -31 38 -11 5 15 8 13 20 -8 11 -20 14 -21 15
-7 0 14 5 17 21 12 12 -4 29 -9 38 -10 9 -2 18 -4 21 -5 3 -1 12 -2 22 -1 9 1
20 -4 24 -10 5 -9 2 -10 -9 -6 -10 3 -17 2 -17 -3 0 -6 11 -10 25 -10 14 0 25
-6 25 -12 0 -8 3 -9 8 -3 8 11 72 18 72 8 0 -4 -7 -15 -17 -25 -14 -16 -14
-18 0 -18 8 0 17 -5 19 -10 2 -6 18 -11 36 -13 17 -1 32 -5 32 -9 0 -5 -4 -8
-10 -8 -5 0 -10 -6 -10 -14 0 -8 -12 -19 -27 -24 l-28 -10 33 -1 c17 -1 32 -5
32 -10 0 -5 13 -9 30 -9 16 1 27 4 25 9 -11 16 26 2 41 -17 12 -15 15 -16 10
-2 -2 9 2 22 10 28 11 10 14 9 15 -6 0 -17 2 -16 11 3 10 21 36 38 45 30 7 -8
-10 -37 -22 -37 -17 0 -26 -25 -18 -47 5 -12 2 -15 -9 -10 -11 4 -18 -2 -22
-18 -12 -46 -172 -71 -343 -54 -79 8 -173 41 -173 60 0 5 -6 9 -14 9 -17 0
-47 44 -50 74 -1 12 -5 26 -9 32 -8 13 -27 130 -27 168 0 27 1 28 18 13 12
-11 22 -13 32 -7z"/>
<path d="M2051 2792 c-8 -3 -7 -10 1 -25 7 -12 12 -29 13 -37 0 -8 8 -14 18
-14 45 3 50 7 22 14 l-30 8 35 1 c24 1 31 4 21 10 -7 5 -11 13 -7 19 11 19
-40 35 -73 24z"/>
<path d="M2260 2763 l-25 -15 30 7 c17 3 34 11 40 16 14 14 -17 9 -45 -8z"/>
<path d="M2094 2675 c-17 -13 -18 -14 -1 -15 9 0 16 -4 15 -9 -2 -5 1 -11 6
-12 11 -5 16 40 6 46 -4 2 -16 -2 -26 -10z"/>
<path d="M2385 2660 c-3 -5 -1 -10 4 -10 6 0 11 5 11 10 0 6 -2 10 -4 10 -3 0
-8 -4 -11 -10z"/>
<path d="M2228 2563 c7 -3 16 -2 19 1 4 3 -2 6 -13 5 -11 0 -14 -3 -6 -6z"/>
<path d="M2865 4920 c-3 -5 1 -10 10 -10 9 0 13 5 10 10 -3 6 -8 10 -10 10 -2
0 -7 -4 -10 -10z"/>
<path d="M1845 3970 c3 -5 8 -10 11 -10 2 0 4 5 4 10 0 6 -5 10 -11 10 -5 0
-7 -4 -4 -10z"/>
<path d="M2991 3924 c0 -11 3 -14 6 -6 3 7 2 16 -1 19 -3 4 -6 -2 -5 -13z"/>
<path d="M2920 3915 c0 -16 16 -20 24 -6 3 5 -1 11 -9 15 -9 3 -15 0 -15 -9z"/>
<path d="M2440 3903 c0 -5 12 -9 27 -10 19 -1 22 1 12 8 -17 11 -39 12 -39 2z"/>
<path d="M2296 3892 c-12 -11 -5 -17 19 -18 14 -1 25 2 25 6 0 10 -37 20 -44
12z"/>
<path d="M2381 3892 c-1 -8 -6 -10 -13 -6 -10 5 -10 4 -1 -6 15 -16 28 -8 20
12 -4 11 -6 11 -6 0z"/>
<path d="M3006 3867 c3 -10 9 -15 12 -12 3 3 0 11 -7 18 -10 9 -11 8 -5 -6z"/>
<path d="M2806 3645 c-3 -8 -1 -15 4 -15 6 0 10 7 10 15 0 8 -2 15 -4 15 -2 0
-6 -7 -10 -15z"/>
<path d="M2940 3480 c0 -5 5 -10 10 -10 6 0 10 5 10 10 0 6 -4 10 -10 10 -5 0
-10 -4 -10 -10z"/>
<path d="M1239 3059 c-20 -20 -21 -28 -15 -103 4 -44 13 -91 21 -103 8 -12 15
-27 15 -33 0 -6 6 -18 14 -26 8 -7 16 -19 19 -26 9 -26 16 0 27 102 16 146 15
148 -16 181 -33 35 -38 35 -65 8z"/>
<path d="M1427 2590 c-3 -11 -1 -20 4 -20 5 0 18 -9 29 -20 26 -26 25 -16 -1
26 -24 40 -25 40 -32 14z"/>
<path d="M1440 2390 c0 -37 32 -100 61 -121 l29 -20 0 36 c0 42 -13 71 -47
103 -30 27 -43 28 -43 2z"/>
<path d="M2498 2353 c-18 -15 -35 -31 -38 -34 -3 -4 -22 -18 -42 -32 -48 -32
-138 -163 -138 -200 0 -16 -4 -26 -10 -22 -5 3 -12 -17 -16 -45 -4 -28 -17
-66 -29 -84 -12 -18 -32 -58 -42 -87 -18 -47 -19 -64 -11 -128 7 -57 6 -76 -4
-82 -9 -6 -7 -13 7 -30 20 -22 20 -22 -2 -15 -19 6 -23 4 -23 -16 -1 -22 -1
-22 -15 -4 -8 11 -18 16 -22 12 -4 -4 -1 -11 6 -15 7 -5 11 -13 7 -19 -3 -6 0
-12 6 -15 9 -3 6 -11 -9 -24 -28 -25 -29 -33 -5 -26 10 2 24 -2 30 -10 22 -26
-25 -29 -49 -4 -17 19 -21 20 -29 7 -7 -11 -10 -4 -10 24 0 62 -13 32 -15 -34
-1 -63 -6 -75 -26 -68 -9 3 -9 8 2 18 18 16 13 66 -7 74 -8 3 -14 0 -14 -6 0
-9 -3 -9 -12 0 -18 18 -51 15 -44 -3 3 -8 1 -15 -4 -15 -6 0 -10 7 -10 15 0
17 -18 52 -37 73 -7 7 -13 18 -13 23 0 6 -4 7 -10 4 -5 -3 -7 0 -4 8 3 8 0 18
-6 22 -9 6 -9 9 0 15 7 4 9 13 6 19 -13 20 -23 11 -21 -19 1 -16 -2 -30 -7
-30 -4 0 -8 7 -8 15 0 8 -4 15 -10 15 -5 0 -10 7 -10 15 0 20 -10 19 -25 -2
-11 -14 -10 -19 2 -29 9 -6 14 -17 11 -24 -3 -10 -8 -9 -20 4 -9 9 -21 16 -27
16 -14 0 -14 17 -1 25 13 8 13 35 0 35 -5 0 -6 -8 -3 -17 5 -13 2 -15 -11 -10
-15 6 -17 3 -12 -18 5 -18 2 -25 -9 -25 -8 0 -15 4 -15 10 0 5 -7 7 -15 4 -8
-4 -15 -2 -15 4 0 5 -6 12 -14 15 -16 6 -17 -24 -1 -35 6 -5 5 -8 -3 -8 -17 0
-32 16 -59 60 -19 32 -29 115 -33 258 -1 40 -58 -19 -81 -84 -52 -149 -72
-198 -92 -220 -12 -14 -38 -55 -57 -91 -19 -37 -42 -70 -50 -74 -151 -71 -213
-105 -249 -139 -61 -56 -173 -139 -251 -185 -103 -61 -260 -164 -325 -214 -32
-25 -147 -107 -255 -181 l-195 -135 -3 -292 -2 -293 2060 0 c1855 0 2060 2
2060 16 0 8 -13 54 -29 102 -16 48 -39 125 -51 172 -12 47 -25 90 -29 95 -4 6
-13 29 -20 53 -6 23 -15 42 -19 42 -4 0 -8 19 -9 41 -2 37 -42 123 -43 92 0
-6 4 -14 9 -17 5 -3 11 -15 14 -26 7 -28 -9 -16 -27 21 -13 26 -13 31 -1 36
11 4 12 10 4 24 -5 11 -14 17 -19 14 -6 -4 -7 2 -3 12 6 16 5 17 -12 3 -17
-14 -18 -14 -6 7 10 19 8 25 -9 40 -11 10 -25 19 -30 19 -6 1 -14 2 -20 3 -5
0 -10 5 -10 11 0 5 8 7 18 3 9 -3 4 4 -13 17 -48 37 -52 42 -30 35 11 -4 4 4
-15 16 -19 13 -38 28 -42 34 -4 5 -11 10 -15 10 -4 0 -21 10 -38 21 -16 12
-63 38 -104 59 -41 20 -84 49 -95 63 -12 15 -28 34 -36 42 -8 9 -33 38 -55 65
-22 28 -47 56 -57 63 -10 7 -18 19 -18 25 0 7 -27 41 -59 76 -59 64 -59 64
-71 40 -11 -20 -72 -101 -90 -119 -3 -3 -17 -30 -32 -60 -43 -88 -115 -170
-177 -203 l-34 -18 6 -92 c3 -60 11 -104 23 -127 10 -19 20 -53 23 -75 7 -64
2 -170 -8 -173 -6 -2 -8 -21 -5 -43 6 -52 -9 -50 -26 4 -17 53 -40 83 -52 65
-5 -9 -8 -7 -8 7 0 19 -11 22 -167 39 -93 10 -190 20 -217 23 -34 4 -51 1 -57
-8 -4 -7 -11 -10 -16 -6 -4 5 -1 12 7 18 12 8 9 15 -20 39 -19 17 -31 30 -26
30 4 0 0 8 -10 17 -9 9 -12 19 -6 21 6 2 1 20 -11 45 -11 23 -22 49 -23 57 -9
49 -18 76 -28 82 -6 4 2 8 17 8 23 0 27 3 22 19 -4 12 0 21 12 25 10 3 28 10
39 15 16 7 32 4 60 -9 22 -11 53 -24 69 -31 27 -10 28 -12 11 -18 -27 -10 -10
-19 60 -30 40 -6 66 -5 79 2 19 10 19 10 1 17 -17 5 -15 8 10 17 16 6 70 19
119 28 50 10 95 23 101 29 16 15 30 81 15 72 -6 -4 -11 -1 -11 8 0 8 6 16 13
19 10 4 10 7 0 18 -10 10 -13 10 -13 1 0 -8 -11 -5 -28 8 -16 12 -35 22 -43
23 -8 2 -19 6 -25 9 -6 4 -11 1 -11 -7 0 -8 4 -15 9 -15 5 0 7 -4 3 -9 -3 -6
-16 -6 -34 0 -16 6 -41 8 -57 5 -16 -2 -33 -5 -39 -5 -5 -1 -3 -6 5 -11 12 -8
10 -10 -9 -10 -31 0 -15 -20 18 -23 11 -1 21 -4 21 -8 0 -8 -52 -17 -68 -11
-15 5 -16 38 -2 47 6 3 10 13 10 21 0 11 -5 12 -17 6 -25 -12 -71 -8 -86 8
-10 10 -4 11 30 6 36 -5 43 -3 48 14 6 18 8 18 21 5 20 -20 27 -19 42 5 11 18
10 20 -9 20 -16 0 -19 4 -15 17 4 9 2 19 -4 23 -14 9 -1 40 17 40 8 0 11 5 8
11 -4 6 0 16 9 22 9 7 20 25 24 41 5 19 15 30 28 31 10 2 27 6 37 10 9 4 17 3
17 -2 0 -5 9 -9 20 -9 11 0 20 3 20 7 0 4 14 9 31 13 30 6 31 8 26 46 -5 37 6
56 16 28 2 -7 7 -10 11 -7 4 4 0 14 -9 23 -15 15 -14 17 10 26 14 5 28 17 32
25 3 9 11 14 18 11 8 -3 12 2 10 12 -1 9 3 20 9 24 6 4 1 11 -14 17 l-25 10
23 7 c18 5 23 12 19 30 -3 20 0 24 18 24 14 0 25 7 28 20 3 11 12 20 21 20 9
0 16 6 16 13 0 17 36 38 55 31 8 -3 15 -2 15 3 0 5 19 19 41 31 32 17 45 20
55 11 11 -9 14 -6 14 14 0 24 -26 45 -32 26 -2 -6 -16 -4 -33 5 -17 8 -47 16
-68 18 -20 1 -37 5 -37 9 0 4 -11 6 -24 3 -15 -2 -26 2 -30 11 -4 12 -20 15
-68 14 -88 -3 -158 14 -180 43 -16 20 -18 21 -18 4 0 -16 -2 -16 -16 -5 -12
10 -17 10 -23 0 -6 -10 -10 -8 -15 5 -4 10 -1 21 6 25 9 6 9 11 0 22 -10 12
-9 16 5 22 10 5 22 7 26 6 4 -1 15 6 24 15 12 12 18 12 23 3 5 -6 19 -10 34
-7 14 3 26 1 26 -4 0 -5 5 -6 10 -3 6 3 10 2 10 -2 0 -5 -12 -14 -27 -21 -20
-8 -22 -11 -7 -8 15 2 26 -4 35 -20 9 -17 21 -24 41 -24 24 0 32 6 44 36 9 20
13 47 10 60 -3 12 -2 26 4 29 21 13 8 85 -14 85 -7 0 -12 10 -11 23 2 12 6 21
11 21 5 -1 18 7 29 17 19 19 19 19 -2 16 -11 -1 -31 -10 -45 -19 -31 -20 -68
-13 -68 13 0 27 -93 72 -134 66 -17 -3 -40 -7 -51 -9 -11 -2 -23 -7 -26 -11
-3 -4 -17 -3 -31 2 -33 13 -49 68 -24 86 21 16 21 45 -1 45 -13 0 -14 3 -5 12
7 7 12 16 12 20 0 15 -18 8 -52 -19z m-20 -207 c-6 -14 -17 -26 -24 -26 -7 0
-16 -5 -20 -12 -5 -8 0 -9 14 -6 15 4 22 2 22 -8 0 -10 -7 -13 -24 -8 -28 7
-41 -17 -26 -47 11 -20 6 -39 -11 -39 -5 0 -9 7 -9 15 0 8 -6 15 -14 15 -8 0
-16 13 -18 30 -3 17 -1 30 4 30 4 0 8 -8 8 -17 0 -15 2 -14 14 3 10 13 11 23
4 31 -7 9 -7 13 1 13 6 0 11 6 11 14 0 8 7 17 16 20 22 9 24 8 18 -9 -4 -8 -2
-15 4 -15 5 0 13 17 17 37 5 30 9 34 16 21 6 -11 5 -26 -3 -42z m297 24 c3 -5
-3 -10 -15 -10 -12 0 -18 5 -15 10 3 6 10 10 15 10 5 0 12 -4 15 -10z m-255
-53 c0 -8 -9 -22 -20 -32 -11 -10 -20 -13 -20 -8 0 6 7 13 15 17 8 3 12 12 9
21 -3 8 -1 15 5 15 6 0 11 -6 11 -13z m294 -16 c3 -5 -1 -14 -10 -21 -8 -7
-12 -20 -9 -28 6 -15 -23 -82 -35 -82 -26 0 -15 89 12 99 11 4 19 10 19 14 -2
20 0 27 8 27 6 0 12 -4 15 -9z m-454 -46 c0 -9 -9 -15 -22 -15 -22 1 -23 1 -4
15 25 19 26 19 26 0z m0 -47 c0 -6 -7 -7 -16 -4 -9 3 -20 6 -25 6 -5 0 -9 4
-9 9 0 4 11 6 25 3 14 -2 25 -9 25 -14z m237 -8 c-2 -23 -12 -26 -20 -6 -3 8
-1 17 6 20 7 2 13 5 14 5 1 1 1 -8 0 -19z m143 10 c0 -5 -4 -10 -10 -10 -5 0
-10 5 -10 10 0 6 5 10 10 10 6 0 10 -4 10 -10z m-406 -58 c10 -2 15 1 12 7 -4
5 -2 12 4 16 5 3 10 -1 10 -9 0 -19 -16 -29 -52 -31 -18 -1 -28 3 -28 12 0 8
5 11 10 8 6 -3 10 2 11 12 0 14 2 15 7 3 4 -8 15 -16 26 -18z m306 8 c-12 -23
-30 -27 -30 -7 0 17 10 27 27 27 11 0 11 -5 3 -20z m-147 -39 c-2 -6 7 -11 18
-11 17 0 20 5 17 25 -3 14 -1 25 3 25 5 0 9 -5 9 -11 0 -6 7 -9 15 -5 8 3 15
2 15 -2 0 -4 15 -13 33 -20 29 -12 31 -14 15 -26 -10 -7 -18 -18 -18 -25 0 -6
-15 -11 -32 -11 -18 0 -45 -6 -60 -14 -74 -39 -138 -49 -182 -28 -26 12 -30
12 -38 -2 -10 -17 -48 -22 -48 -6 0 5 7 7 15 4 11 -5 15 1 15 17 0 19 -2 21
-10 9 -5 -8 -12 -11 -17 -7 -4 4 6 19 22 31 20 17 32 20 37 13 8 -13 10 -11
26 18 8 15 19 19 54 16 38 -2 46 1 58 23 12 24 15 25 34 12 12 -8 20 -19 19
-25z m-183 -1 c0 -5 -5 -10 -11 -10 -5 0 -7 5 -4 10 3 6 8 10 11 10 2 0 4 -4
4 -10z m643 -152 c64 0 69 -8 32 -53 -21 -26 -26 -28 -36 -15 -9 13 -11 13
-16 1 -3 -8 -21 -29 -39 -47 -32 -33 -33 -33 -130 -33 -102 0 -129 7 -139 38
-3 10 -13 18 -22 17 -21 -1 -55 56 -47 78 8 21 38 21 55 0 12 -14 14 -14 26 1
10 15 24 17 85 13 41 -3 83 -1 93 3 11 5 34 6 50 3 17 -3 56 -5 88 -6z m-413
-23 c0 -33 -57 -30 -68 3 -2 8 9 12 32 12 26 0 36 -4 36 -15z m-167 -89 c15
-13 27 -25 27 -28 0 -11 78 -87 117 -115 l43 -31 -28 -5 c-17 -4 -31 -1 -38 9
-14 18 -20 18 -27 0 -4 -10 -1 -13 9 -9 10 4 12 0 8 -11 -3 -9 -10 -13 -15
-10 -5 3 -9 -5 -9 -18 0 -19 -6 -23 -31 -24 -17 -1 -26 2 -20 6 8 4 5 13 -9
25 -11 10 -20 31 -20 47 0 18 -5 28 -15 28 -11 0 -12 5 -5 25 8 20 6 25 -6 25
-8 0 -17 7 -20 15 -4 11 -10 12 -18 6 -7 -6 -17 -6 -26 -1 -12 8 -11 10 5 10
19 1 19 1 3 14 -10 7 -18 21 -18 30 0 22 30 33 41 15 7 -11 9 -11 9 4 0 23 10
22 43 -7z m-625 -91 c11 -13 22 -21 26 -18 3 3 6 1 6 -5 0 -7 -5 -12 -11 -12
-7 0 -9 -9 -6 -21 4 -16 3 -18 -9 -8 -8 6 -14 20 -14 30 0 11 -7 19 -17 19
-15 0 -16 2 -3 10 12 8 10 10 -10 10 -20 0 -22 2 -10 10 22 14 26 13 48 -15z
m576 -25 c-6 -6 -10 -2 -11 12 -2 16 1 18 10 9 7 -7 8 -14 1 -21z m449 -16
c-8 -22 -23 -6 -23 24 1 25 2 26 15 9 7 -11 11 -25 8 -33z m-493 -4 c0 -5 -5
-10 -11 -10 -5 0 -7 5 -4 10 3 6 8 10 11 10 2 0 4 -4 4 -10z m20 -30 c0 -5 -2
-10 -4 -10 -3 0 -8 5 -11 10 -3 6 -1 10 4 10 6 0 11 -4 11 -10z m-144 -62 c-1
-7 -5 -19 -9 -26 -5 -7 -2 -26 7 -42 8 -17 11 -30 6 -30 -4 0 -13 13 -20 30
-7 16 -16 27 -21 24 -5 -3 -9 -1 -9 4 0 6 7 13 16 16 8 3 13 10 10 15 -4 5 0
12 6 14 7 3 14 6 15 6 1 1 0 -5 -1 -11z m24 -36 c-6 -2 -8 -8 -5 -13 4 -5 -1
-6 -9 -3 -19 7 -20 11 -3 28 9 10 14 11 19 2 4 -6 3 -13 -2 -14z m95 -12 c3
-5 1 -10 -4 -10 -6 0 -11 5 -11 10 0 6 2 10 4 10 3 0 8 -4 11 -10z m118 -37
c-3 -7 -9 -13 -13 -13 -4 0 -10 6 -13 13 -3 7 3 13 13 13 10 0 16 -6 13 -13z
m-106 -23 c1 -11 -2 -20 -7 -20 -10 0 -20 26 -13 34 12 11 19 6 20 -14z m193
10 c0 -5 -7 -7 -15 -4 -8 4 -15 8 -15 10 0 2 7 4 15 4 8 0 15 -4 15 -10z m40
-7 c-8 -4 -21 -12 -28 -20 -8 -7 -18 -10 -24 -7 -11 7 29 32 52 32 13 0 13 0
0 -5z m-170 -23 c-6 -11 -16 -20 -22 -20 -6 0 -3 9 7 20 10 11 20 20 22 20 2
0 -1 -9 -7 -20z m-180 0 c0 -5 -7 -7 -15 -4 -8 4 -15 8 -15 10 0 2 7 4 15 4 8
0 15 -4 15 -10z m450 -30 c0 -5 -5 -10 -11 -10 -5 0 -7 5 -4 10 3 6 8 10 11
10 2 0 4 -4 4 -10z m-270 -24 c0 -2 -7 -9 -15 -16 -13 -11 -14 -10 -9 4 5 14
24 23 24 12z m119 -38 c-6 -10 -15 -16 -20 -12 -7 4 -9 -1 -7 -12 2 -11 11
-18 21 -18 21 2 22 -19 2 -36 -21 -17 -51 -5 -36 14 10 11 8 16 -10 21 -19 6
-20 9 -6 16 8 5 18 22 22 39 6 26 9 28 25 18 14 -9 16 -16 9 -30z m-91 7 c-3
-3 -9 2 -12 12 -6 14 -5 15 5 6 7 -7 10 -15 7 -18z m186 -4 c3 -5 -1 -12 -10
-15 -27 -10 -35 -7 -22 9 15 17 25 19 32 6z m-12 -60 c4 -3 4 -12 -1 -19 -6
-10 -13 -11 -34 -1 -37 17 -36 42 1 33 15 -4 30 -9 34 -13z m-142 -36 c7 -8
21 -15 31 -15 12 0 19 -7 19 -20 0 -26 -7 -25 -31 3 -16 19 -20 20 -30 7 -9
-12 -10 -12 -5 4 4 11 1 23 -6 28 -8 5 -9 8 -2 8 6 0 17 -7 24 -15z m275 -115
c3 -5 1 -10 -4 -10 -6 0 -11 5 -11 10 0 6 2 10 4 10 3 0 8 -4 11 -10z m101
-20 c13 0 13 -2 2 -13 -7 -7 -21 -16 -31 -20 -14 -5 -16 -2 -11 18 4 16 2 25
-6 25 -6 0 -8 5 -5 10 4 6 12 4 21 -5 9 -8 22 -15 30 -15z m-876 -10 c0 -5 -5
-10 -11 -10 -5 0 -7 5 -4 10 3 6 8 10 11 10 2 0 4 -4 4 -10z m920 -14 c0 -16
-24 -38 -33 -30 -7 7 14 44 25 44 5 0 8 -6 8 -14z m-750 -110 c0 -3 -4 -8 -10
-11 -5 -3 -10 -1 -10 4 0 6 5 11 10 11 6 0 10 -2 10 -4z m1530 -16 c0 -5 -2
-10 -4 -10 -3 0 -8 5 -11 10 -3 6 -1 10 4 10 6 0 11 -4 11 -10z m57 -36 c-3
-3 -12 -4 -19 -1 -8 3 -5 6 6 6 11 1 17 -2 13 -5z m-7 -29 c7 -9 8 -15 2 -15
-5 0 -12 7 -16 15 -3 8 -4 15 -2 15 2 0 9 -7 16 -15z m140 -16 c0 -6 -4 -7
-10 -4 -5 3 -10 11 -10 16 0 6 5 7 10 4 6 -3 10 -11 10 -16z m47 -39 c13 0 23
-4 23 -8 0 -4 -15 -6 -33 -4 -21 2 -34 9 -34 18 0 10 4 11 11 4 5 -5 20 -10
33 -10z m63 -70 c0 -5 -4 -10 -10 -10 -5 0 -10 5 -10 10 0 6 5 10 10 10 6 0
10 -4 10 -10z m-43 -6 c-3 -3 -12 -4 -19 -1 -8 3 -5 6 6 6 11 1 17 -2 13 -5z
m-237 -129 c0 -5 -5 -3 -10 5 -5 8 -10 20 -10 25 0 6 5 3 10 -5 5 -8 10 -19
10 -25z m89 -79 c-3 -3 -11 5 -18 17 -13 21 -12 21 5 5 10 -10 16 -20 13 -22z
m-1409 -11 c0 -8 -2 -15 -4 -15 -2 0 -6 7 -10 15 -3 8 -1 15 4 15 6 0 10 -7
10 -15z m1353 -2 c-13 -2 -23 -9 -23 -14 0 -6 -5 -7 -11 -3 -15 9 9 24 36 22
17 -1 17 -1 -2 -5z m-118 -33 c3 -5 -1 -10 -10 -10 -9 0 -13 5 -10 10 3 6 8
10 10 10 2 0 7 -4 10 -10z m-664 -33 c-10 -9 -11 -8 -5 6 3 10 9 15 12 12 3
-3 0 -11 -7 -18z m-1851 -37 c0 -5 -2 -10 -4 -10 -3 0 -8 5 -11 10 -3 6 -1 10
4 10 6 0 11 -4 11 -10z m2784 -26 c5 -14 4 -15 -9 -4 -17 14 -19 20 -6 20 5 0
12 -7 15 -16z m-1264 -14 c0 -5 -5 -10 -11 -10 -5 0 -7 5 -4 10 3 6 8 10 11
10 2 0 4 -4 4 -10z m267 -107 c-2 -21 -4 -6 -4 32 0 39 2 55 4 38 2 -18 2 -50
0 -70z m1130 91 c-3 -3 -12 -4 -19 -1 -8 3 -5 6 6 6 11 1 17 -2 13 -5z m-2263
-20 c3 -8 2 -12 -4 -9 -6 3 -10 10 -10 16 0 14 7 11 14 -7z m2176 -15 c0 -6
-4 -7 -10 -4 -5 3 -10 11 -10 16 0 6 5 7 10 4 6 -3 10 -11 10 -16z m-325 -9
c3 -5 1 -10 -4 -10 -6 0 -11 5 -11 10 0 6 2 10 4 10 3 0 8 -4 11 -10z m428
-27 c-7 -2 -21 -2 -30 0 -10 3 -4 5 12 5 17 0 24 -2 18 -5z m-78 -13 c3 -5 1
-10 -4 -10 -6 0 -11 5 -11 10 0 6 2 10 4 10 3 0 8 -4 11 -10z m-2785 -41 c0
-5 -4 -9 -10 -9 -5 0 -10 7 -10 16 0 8 5 12 10 9 6 -3 10 -10 10 -16z m-80 -9
c0 -5 -2 -10 -4 -10 -3 0 -8 5 -11 10 -3 6 -1 10 4 10 6 0 11 -4 11 -10z
m2590 -51 c0 -6 -4 -7 -10 -4 -5 3 -10 11 -10 16 0 6 5 7 10 4 6 -3 10 -11 10
-16z m73 14 c-7 -2 -21 -2 -30 0 -10 3 -4 5 12 5 17 0 24 -2 18 -5z m207 -14
c0 -6 -4 -7 -10 -4 -5 3 -10 11 -10 16 0 6 5 7 10 4 6 -3 10 -11 10 -16z
m-330 -24 c0 -5 -5 -3 -10 5 -5 8 -10 20 -10 25 0 6 5 3 10 -5 5 -8 10 -19 10
-25z m-1363 3 c-3 -8 -6 -5 -6 6 -1 11 2 17 5 13 3 -3 4 -12 1 -19z m610 -15
c-3 -10 -5 -5 -5 12 0 17 2 24 5 18 2 -7 2 -21 0 -30z m-977 17 c0 -5 -2 -10
-4 -10 -3 0 -8 5 -11 10 -3 6 -1 10 4 10 6 0 11 -4 11 -10z m1700 0 c0 -5 -2
-10 -4 -10 -3 0 -8 5 -11 10 -3 6 -1 10 4 10 6 0 11 -4 11 -10z m-40 -10 c0
-5 -4 -10 -10 -10 -5 0 -10 5 -10 10 0 6 5 10 10 10 6 0 10 -4 10 -10z m-1205
-10 c3 -5 1 -10 -4 -10 -6 0 -11 5 -11 10 0 6 2 10 4 10 3 0 8 -4 11 -10z
m1102 -16 c-3 -3 -12 -4 -19 -1 -8 3 -5 6 6 6 11 1 17 -2 13 -5z"/>
<path d="M2372 1541 c2 -7 7 -12 11 -12 12 1 9 15 -3 20 -7 2 -11 -2 -8 -8z"/>
<path d="M2390 1485 c0 -16 16 -20 24 -6 3 5 -1 11 -9 15 -9 3 -15 0 -15 -9z"/>
<path d="M2430 1480 c0 -5 5 -10 11 -10 5 0 7 5 4 10 -3 6 -8 10 -11 10 -2 0
-4 -4 -4 -10z"/>
<path d="M3111 2298 c5 -17 6 -41 3 -54 -4 -15 10 -50 42 -110 83 -155 85
-161 91 -253 5 -72 2 -96 -13 -130 -10 -22 -22 -41 -27 -41 -4 0 -6 -4 -3 -9
3 -4 0 -22 -6 -39 -7 -17 -9 -34 -6 -38 12 -12 34 20 47 69 8 26 17 50 22 52
24 16 15 233 -11 259 -6 6 -10 20 -10 32 0 13 -4 25 -10 29 -5 3 -7 12 -4 20
3 7 -4 18 -15 25 -12 6 -21 15 -21 21 0 6 4 8 9 5 5 -4 1 11 -9 31 -30 65 -48
107 -55 130 -3 11 -12 24 -19 26 -11 5 -12 -1 -5 -25z"/>
<path d="M1517 2194 c-3 -3 -1 -17 4 -31 5 -14 7 -28 5 -31 -2 -4 2 -18 10
-32 l13 -25 1 31 c0 66 -15 106 -33 88z"/>
<path d="M2676 1925 c4 -8 10 -15 15 -15 5 0 9 7 9 15 0 8 -7 15 -15 15 -9 0
-12 -6 -9 -15z"/>
<path d="M1760 1852 c0 -26 10 -52 20 -52 5 0 5 14 0 31 -12 40 -20 49 -20 21z"/>
<path d="M1630 1665 c-7 -9 -8 -15 -2 -15 5 0 12 7 16 15 3 8 4 15 2 15 -2 0
-9 -7 -16 -15z"/>
<path d="M1660 1665 c0 -8 4 -15 10 -15 5 0 7 7 4 15 -4 8 -8 15 -10 15 -2 0
-4 -7 -4 -15z"/>
<path d="M1921 1664 c0 -11 3 -14 6 -6 3 7 2 16 -1 19 -3 4 -6 -2 -5 -13z"/>
<path d="M1955 1650 c3 -5 8 -10 11 -10 2 0 4 5 4 10 0 6 -5 10 -11 10 -5 0
-7 -4 -4 -10z"/>
<path d="M2095 1550 c3 -5 8 -10 11 -10 2 0 4 5 4 10 0 6 -5 10 -11 10 -5 0
-7 -4 -4 -10z"/>
<path d="M2840 1348 c0 -4 12 -8 27 -8 14 0 23 3 19 7 -10 10 -46 11 -46 1z"/>
<path d="M2650 1239 c0 -5 5 -7 10 -4 6 3 10 8 10 11 0 2 -4 4 -10 4 -5 0 -10
-5 -10 -11z"/>
<path d="M2610 1180 c20 -13 53 -13 45 0 -3 6 -18 10 -33 10 -21 0 -24 -2 -12
-10z"/>
<path d="M2641 1113 c-1 -6 -4 -20 -7 -30 -5 -17 -5 -17 6 0 6 10 9 23 6 30
-3 9 -5 9 -5 0z"/>
<path d="M2795 1090 c-19 -8 -19 -9 3 -9 12 -1 22 4 22 9 0 6 -1 10 -2 9 -2 0
-12 -4 -23 -9z"/>
<path d="M2838 1073 c7 -3 16 -2 19 1 4 3 -2 6 -13 5 -11 0 -14 -3 -6 -6z"/>
<path d="M2532 803 c-21 -8 -2 -23 30 -23 26 0 29 2 18 15 -13 15 -25 17 -48
8z"/>
</g>
</svg>
